<svg version="1.1" xmlns="http://www.w3.org/2000/svg" xmlns:xlink="http://www.w3.org/1999/xlink" width="988" height="643"><defs><clipPath id="zufkVMdpFenI"><path fill="none" stroke="none" d=" M 0 0 L 988 0 L 988 643 L 0 643 L 0 0 Z"/></clipPath></defs><g transform="scale(1,1)" clip-path="url(#zufkVMdpFenI)"><g><rect fill="rgb(255,255,255)" stroke="none" x="0" y="0" width="988" height="643" fill-opacity="1"/><path fill="none" stroke="rgb(192,192,192)" paint-order="fill stroke markers" d=" M 2.5 0.5 L 2.5 643.5 M 2.5 0.5 L 2.5 643.5 M 58.5 0.5 L 58.5 643.5 M 114.5 0.5 L 114.5 643.5 M 170.5 0.5 L 170.5 643.5 M 227.5 0.5 L 227.5 643.5 M 283.5 0.5 L 283.5 643.5 M 339.5 0.5 L 339.5 643.5 M 451.5 0.5 L 451.5 643.5 M 508.5 0.5 L 508.5 643.5 M 564.5 0.5 L 564.5 643.5 M 620.5 0.5 L 620.5 643.5 M 676.5 0.5 L 676.5 643.5 M 733.5 0.5 L 733.5 643.5 M 789.5 0.5 L 789.5 643.5 M 845.5 0.5 L 845.5 643.5 M 901.5 0.5 L 901.5 643.5 M 958.5 0.5 L 958.5 643.5" stroke-opacity="1" stroke-linecap="round" stroke-linejoin="round" stroke-miterlimit="10"/><path fill="none" stroke="rgb(192,192,192)" paint-order="fill stroke markers" d=" M 13.5 0.5 L 13.5 643.5 M 24.5 0.5 L 24.5 643.5 M 35.5 0.5 L 35.5 643.5 M 47.5 0.5 L 47.5 643.5 M 69.5 0.5 L 69.5 643.5 M 80.5 0.5 L 80.5 643.5 M 92.5 0.5 L 92.5 643.5 M 103.5 0.5 L 103.5 643.5 M 125.5 0.5 L 125.5 643.5 M 137.5 0.5 L 137.5 643.5 M 148.5 0.5 L 148.5 643.5 M 159.5 0.5 L 159.5 643.5 M 182.5 0.5 L 182.5 643.5 M 193.5 0.5 L 193.5 643.5 M 204.5 0.5 L 204.5 643.5 M 215.5 0.5 L 215.5 643.5 M 238.5 0.5 L 238.5 643.5 M 249.5 0.5 L 249.5 643.5 M 260.5 0.5 L 260.5 643.5 M 272.5 0.5 L 272.5 643.5 M 294.5 0.5 L 294.5 643.5 M 305.5 0.5 L 305.5 643.5 M 317.5 0.5 L 317.5 643.5 M 328.5 0.5 L 328.5 643.5 M 350.5 0.5 L 350.5 643.5 M 362.5 0.5 L 362.5 643.5 M 373.5 0.5 L 373.5 643.5 M 384.5 0.5 L 384.5 643.5 M 407.5 0.5 L 407.5 643.5 M 418.5 0.5 L 418.5 643.5 M 429.5 0.5 L 429.5 643.5 M 440.5 0.5 L 440.5 643.5 M 463.5 0.5 L 463.5 643.5 M 474.5 0.5 L 474.5 643.5 M 485.5 0.5 L 485.5 643.5 M 496.5 0.5 L 496.5 643.5 M 519.5 0.5 L 519.5 643.5 M 530.5 0.5 L 530.5 643.5 M 541.5 0.5 L 541.5 643.5 M 553.5 0.5 L 553.5 643.5 M 575.5 0.5 L 575.5 643.5 M 586.5 0.5 L 586.5 643.5 M 598.5 0.5 L 598.5 643.5 M 609.5 0.5 L 609.5 643.5 M 631.5 0.5 L 631.5 643.5 M 643.5 0.5 L 643.5 643.5 M 654.5 0.5 L 654.5 643.5 M 665.5 0.5 L 665.5 643.5 M 688.5 0.5 L 688.5 643.5 M 699.5 0.5 L 699.5 643.5 M 710.5 0.5 L 710.5 643.5 M 721.5 0.5 L 721.5 643.5 M 744.5 0.5 L 744.5 643.5 M 755.5 0.5 L 755.5 643.5 M 766.5 0.5 L 766.5 643.5 M 778.5 0.5 L 778.5 643.5 M 800.5 0.5 L 800.5 643.5 M 811.5 0.5 L 811.5 643.5 M 823.5 0.5 L 823.5 643.5 M 834.5 0.5 L 834.5 643.5 M 856.5 0.5 L 856.5 643.5 M 868.5 0.5 L 868.5 643.5 M 879.5 0.5 L 879.5 643.5 M 890.5 0.5 L 890.5 643.5 M 913.5 0.5 L 913.5 643.5 M 924.5 0.5 L 924.5 643.5 M 935.5 0.5 L 935.5 643.5 M 946.5 0.5 L 946.5 643.5 M 969.5 0.5 L 969.5 643.5 M 980.5 0.5 L 980.5 643.5" stroke-opacity="0.23529411764705882" stroke-linecap="round" stroke-linejoin="round" stroke-miterlimit="10"/><path fill="none" stroke="rgb(192,192,192)" paint-order="fill stroke markers" d=" M 0.5 28.5 L 988.5 28.5 M 0.5 28.5 L 988.5 28.5 M 0.5 84.5 L 988.5 84.5 M 0.5 140.5 L 988.5 140.5 M 0.5 196.5 L 988.5 196.5 M 0.5 253.5 L 988.5 253.5 M 0.5 309.5 L 988.5 309.5 M 0.5 365.5 L 988.5 365.5 M 0.5 421.5 L 988.5 421.5 M 0.5 534.5 L 988.5 534.5 M 0.5 590.5 L 988.5 590.5" stroke-opacity="1" stroke-linecap="round" stroke-linejoin="round" stroke-miterlimit="10"/><path fill="none" stroke="rgb(192,192,192)" paint-order="fill stroke markers" d=" M 0.5 5.5 L 988.5 5.5 M 0.5 5.5 L 988.5 5.5 M 0.5 16.5 L 988.5 16.5 M 0.5 39.5 L 988.5 39.5 M 0.5 50.5 L 988.5 50.5 M 0.5 61.5 L 988.5 61.5 M 0.5 73.5 L 988.5 73.5 M 0.5 95.5 L 988.5 95.5 M 0.5 106.5 L 988.5 106.5 M 0.5 118.5 L 988.5 118.5 M 0.5 129.5 L 988.5 129.5 M 0.5 151.5 L 988.5 151.5 M 0.5 163.5 L 988.5 163.5 M 0.5 174.5 L 988.5 174.5 M 0.5 185.5 L 988.5 185.5 M 0.5 208.5 L 988.5 208.5 M 0.5 219.5 L 988.5 219.5 M 0.5 230.5 L 988.5 230.5 M 0.5 241.5 L 988.5 241.5 M 0.5 264.5 L 988.5 264.5 M 0.5 275.5 L 988.5 275.5 M 0.5 286.5 L 988.5 286.5 M 0.5 298.5 L 988.5 298.5 M 0.5 320.5 L 988.5 320.5 M 0.5 331.5 L 988.5 331.5 M 0.5 343.5 L 988.5 343.5 M 0.5 354.5 L 988.5 354.5 M 0.5 376.5 L 988.5 376.5 M 0.5 388.5 L 988.5 388.5 M 0.5 399.5 L 988.5 399.5 M 0.5 410.5 L 988.5 410.5 M 0.5 433.5 L 988.5 433.5 M 0.5 444.5 L 988.5 444.5 M 0.5 455.5 L 988.5 455.5 M 0.5 466.5 L 988.5 466.5 M 0.5 489.5 L 988.5 489.5 M 0.5 500.5 L 988.5 500.5 M 0.5 511.5 L 988.5 511.5 M 0.5 523.5 L 988.5 523.5 M 0.5 545.5 L 988.5 545.5 M 0.5 557.5 L 988.5 557.5 M 0.5 568.5 L 988.5 568.5 M 0.5 579.5 L 988.5 579.5 M 0.5 602.5 L 988.5 602.5 M 0.5 613.5 L 988.5 613.5 M 0.5 624.5 L 988.5 624.5 M 0.5 635.5 L 988.5 635.5" stroke-opacity="0.23529411764705882" stroke-linecap="round" stroke-linejoin="round" stroke-miterlimit="10"/><path fill="none" stroke="rgb(0,0,0)" paint-order="fill stroke markers" d=" M 395.5 2.5 L 395.5 643.5" stroke-opacity="1" stroke-miterlimit="10"/><path fill="none" stroke="rgb(0,0,0)" paint-order="fill stroke markers" d=" M 395.5 1.5 L 391.5 5.5" stroke-opacity="1" stroke-miterlimit="10"/><path fill="none" stroke="rgb(0,0,0)" paint-order="fill stroke markers" d=" M 395.5 1.5 L 399.5 5.5" stroke-opacity="1" stroke-miterlimit="10"/><path fill="none" stroke="rgb(0,0,0)" paint-order="fill stroke markers" d=" M 0.5 478.5 L 986.5 478.5" stroke-opacity="1" stroke-miterlimit="10"/><path fill="none" stroke="rgb(0,0,0)" paint-order="fill stroke markers" d=" M 987.5 478.5 L 983.5 474.5" stroke-opacity="1" stroke-miterlimit="10"/><path fill="none" stroke="rgb(0,0,0)" paint-order="fill stroke markers" d=" M 987.5 478.5 L 983.5 482.5" stroke-opacity="1" stroke-miterlimit="10"/><text fill="rgb(0,0,0)" stroke="none" font-family="geogebra-sans-serif, sans-serif" font-size="12px" font-style="normal" font-weight="normal" text-decoration="normal" x="53" y="494" text-anchor="start" dominant-baseline="alphabetic" fill-opacity="1">–3</text><text fill="none" stroke="rgb(255,255,255)" font-family="geogebra-sans-serif, sans-serif" font-size="12px" font-style="normal" font-weight="normal" text-decoration="normal" x="53" y="494" text-anchor="start" dominant-baseline="alphabetic" stroke-opacity="1" stroke-linejoin="bevel" stroke-miterlimit="10" stroke-width="3">–3</text><text fill="rgb(0,0,0)" stroke="none" font-family="geogebra-sans-serif, sans-serif" font-size="12px" font-style="normal" font-weight="normal" text-decoration="normal" x="53" y="494" text-anchor="start" dominant-baseline="alphabetic" fill-opacity="1">–3</text><text fill="rgb(0,0,0)" stroke="none" font-family="geogebra-sans-serif, sans-serif" font-size="12px" font-style="normal" font-weight="normal" text-decoration="normal" x="103" y="494" text-anchor="start" dominant-baseline="alphabetic" fill-opacity="1">–2.5</text><text fill="none" stroke="rgb(255,255,255)" font-family="geogebra-sans-serif, sans-serif" font-size="12px" font-style="normal" font-weight="normal" text-decoration="normal" x="103" y="494" text-anchor="start" dominant-baseline="alphabetic" stroke-opacity="1" stroke-linejoin="bevel" stroke-miterlimit="10" stroke-width="3">–2.5</text><text fill="rgb(0,0,0)" stroke="none" font-family="geogebra-sans-serif, sans-serif" font-size="12px" font-style="normal" font-weight="normal" text-decoration="normal" x="103" y="494" text-anchor="start" dominant-baseline="alphabetic" fill-opacity="1">–2.5</text><text fill="rgb(0,0,0)" stroke="none" font-family="geogebra-sans-serif, sans-serif" font-size="12px" font-style="normal" font-weight="normal" text-decoration="normal" x="165" y="494" text-anchor="start" dominant-baseline="alphabetic" fill-opacity="1">–2</text><text fill="none" stroke="rgb(255,255,255)" font-family="geogebra-sans-serif, sans-serif" font-size="12px" font-style="normal" font-weight="normal" text-decoration="normal" x="165" y="494" text-anchor="start" dominant-baseline="alphabetic" stroke-opacity="1" stroke-linejoin="bevel" stroke-miterlimit="10" stroke-width="3">–2</text><text fill="rgb(0,0,0)" stroke="none" font-family="geogebra-sans-serif, sans-serif" font-size="12px" font-style="normal" font-weight="normal" text-decoration="normal" x="165" y="494" text-anchor="start" dominant-baseline="alphabetic" fill-opacity="1">–2</text><text fill="rgb(0,0,0)" stroke="none" font-family="geogebra-sans-serif, sans-serif" font-size="12px" font-style="normal" font-weight="normal" text-decoration="normal" x="216" y="494" text-anchor="start" dominant-baseline="alphabetic" fill-opacity="1">–1.5</text><text fill="none" stroke="rgb(255,255,255)" font-family="geogebra-sans-serif, sans-serif" font-size="12px" font-style="normal" font-weight="normal" text-decoration="normal" x="216" y="494" text-anchor="start" dominant-baseline="alphabetic" stroke-opacity="1" stroke-linejoin="bevel" stroke-miterlimit="10" stroke-width="3">–1.5</text><text fill="rgb(0,0,0)" stroke="none" font-family="geogebra-sans-serif, sans-serif" font-size="12px" font-style="normal" font-weight="normal" text-decoration="normal" x="216" y="494" text-anchor="start" dominant-baseline="alphabetic" fill-opacity="1">–1.5</text><text fill="rgb(0,0,0)" stroke="none" font-family="geogebra-sans-serif, sans-serif" font-size="12px" font-style="normal" font-weight="normal" text-decoration="normal" x="278" y="494" text-anchor="start" dominant-baseline="alphabetic" fill-opacity="1">–1</text><text fill="none" stroke="rgb(255,255,255)" font-family="geogebra-sans-serif, sans-serif" font-size="12px" font-style="normal" font-weight="normal" text-decoration="normal" x="278" y="494" text-anchor="start" dominant-baseline="alphabetic" stroke-opacity="1" stroke-linejoin="bevel" stroke-miterlimit="10" stroke-width="3">–1</text><text fill="rgb(0,0,0)" stroke="none" font-family="geogebra-sans-serif, sans-serif" font-size="12px" font-style="normal" font-weight="normal" text-decoration="normal" x="278" y="494" text-anchor="start" dominant-baseline="alphabetic" fill-opacity="1">–1</text><text fill="rgb(0,0,0)" stroke="none" font-family="geogebra-sans-serif, sans-serif" font-size="12px" font-style="normal" font-weight="normal" text-decoration="normal" x="328" y="494" text-anchor="start" dominant-baseline="alphabetic" fill-opacity="1">–0.5</text><text fill="none" stroke="rgb(255,255,255)" font-family="geogebra-sans-serif, sans-serif" font-size="12px" font-style="normal" font-weight="normal" text-decoration="normal" x="328" y="494" text-anchor="start" dominant-baseline="alphabetic" stroke-opacity="1" stroke-linejoin="bevel" stroke-miterlimit="10" stroke-width="3">–0.5</text><text fill="rgb(0,0,0)" stroke="none" font-family="geogebra-sans-serif, sans-serif" font-size="12px" font-style="normal" font-weight="normal" text-decoration="normal" x="328" y="494" text-anchor="start" dominant-baseline="alphabetic" fill-opacity="1">–0.5</text><text fill="rgb(0,0,0)" stroke="none" font-family="geogebra-sans-serif, sans-serif" font-size="12px" font-style="normal" font-weight="normal" text-decoration="normal" x="444" y="494" text-anchor="start" dominant-baseline="alphabetic" fill-opacity="1">0.5</text><text fill="none" stroke="rgb(255,255,255)" font-family="geogebra-sans-serif, sans-serif" font-size="12px" font-style="normal" font-weight="normal" text-decoration="normal" x="444" y="494" text-anchor="start" dominant-baseline="alphabetic" stroke-opacity="1" stroke-linejoin="bevel" stroke-miterlimit="10" stroke-width="3">0.5</text><text fill="rgb(0,0,0)" stroke="none" font-family="geogebra-sans-serif, sans-serif" font-size="12px" font-style="normal" font-weight="normal" text-decoration="normal" x="444" y="494" text-anchor="start" dominant-baseline="alphabetic" fill-opacity="1">0.5</text><text fill="rgb(0,0,0)" stroke="none" font-family="geogebra-sans-serif, sans-serif" font-size="12px" font-style="normal" font-weight="normal" text-decoration="normal" x="506" y="494" text-anchor="start" dominant-baseline="alphabetic" fill-opacity="1">1</text><text fill="none" stroke="rgb(255,255,255)" font-family="geogebra-sans-serif, sans-serif" font-size="12px" font-style="normal" font-weight="normal" text-decoration="normal" x="506" y="494" text-anchor="start" dominant-baseline="alphabetic" stroke-opacity="1" stroke-linejoin="bevel" stroke-miterlimit="10" stroke-width="3">1</text><text fill="rgb(0,0,0)" stroke="none" font-family="geogebra-sans-serif, sans-serif" font-size="12px" font-style="normal" font-weight="normal" text-decoration="normal" x="506" y="494" text-anchor="start" dominant-baseline="alphabetic" fill-opacity="1">1</text><text fill="rgb(0,0,0)" stroke="none" font-family="geogebra-sans-serif, sans-serif" font-size="12px" font-style="normal" font-weight="normal" text-decoration="normal" x="556" y="494" text-anchor="start" dominant-baseline="alphabetic" fill-opacity="1">1.5</text><text fill="none" stroke="rgb(255,255,255)" font-family="geogebra-sans-serif, sans-serif" font-size="12px" font-style="normal" font-weight="normal" text-decoration="normal" x="556" y="494" text-anchor="start" dominant-baseline="alphabetic" stroke-opacity="1" stroke-linejoin="bevel" stroke-miterlimit="10" stroke-width="3">1.5</text><text fill="rgb(0,0,0)" stroke="none" font-family="geogebra-sans-serif, sans-serif" font-size="12px" font-style="normal" font-weight="normal" text-decoration="normal" x="556" y="494" text-anchor="start" dominant-baseline="alphabetic" fill-opacity="1">1.5</text><text fill="rgb(0,0,0)" stroke="none" font-family="geogebra-sans-serif, sans-serif" font-size="12px" font-style="normal" font-weight="normal" text-decoration="normal" x="618" y="494" text-anchor="start" dominant-baseline="alphabetic" fill-opacity="1">2</text><text fill="none" stroke="rgb(255,255,255)" font-family="geogebra-sans-serif, sans-serif" font-size="12px" font-style="normal" font-weight="normal" text-decoration="normal" x="618" y="494" text-anchor="start" dominant-baseline="alphabetic" stroke-opacity="1" stroke-linejoin="bevel" stroke-miterlimit="10" stroke-width="3">2</text><text fill="rgb(0,0,0)" stroke="none" font-family="geogebra-sans-serif, sans-serif" font-size="12px" font-style="normal" font-weight="normal" text-decoration="normal" x="618" y="494" text-anchor="start" dominant-baseline="alphabetic" fill-opacity="1">2</text><text fill="rgb(0,0,0)" stroke="none" font-family="geogebra-sans-serif, sans-serif" font-size="12px" font-style="normal" font-weight="normal" text-decoration="normal" x="669" y="494" text-anchor="start" dominant-baseline="alphabetic" fill-opacity="1">2.5</text><text fill="none" stroke="rgb(255,255,255)" font-family="geogebra-sans-serif, sans-serif" font-size="12px" font-style="normal" font-weight="normal" text-decoration="normal" x="669" y="494" text-anchor="start" dominant-baseline="alphabetic" stroke-opacity="1" stroke-linejoin="bevel" stroke-miterlimit="10" stroke-width="3">2.5</text><text fill="rgb(0,0,0)" stroke="none" font-family="geogebra-sans-serif, sans-serif" font-size="12px" font-style="normal" font-weight="normal" text-decoration="normal" x="669" y="494" text-anchor="start" dominant-baseline="alphabetic" fill-opacity="1">2.5</text><text fill="rgb(0,0,0)" stroke="none" font-family="geogebra-sans-serif, sans-serif" font-size="12px" font-style="normal" font-weight="normal" text-decoration="normal" x="731" y="494" text-anchor="start" dominant-baseline="alphabetic" fill-opacity="1">3</text><text fill="none" stroke="rgb(255,255,255)" font-family="geogebra-sans-serif, sans-serif" font-size="12px" font-style="normal" font-weight="normal" text-decoration="normal" x="731" y="494" text-anchor="start" dominant-baseline="alphabetic" stroke-opacity="1" stroke-linejoin="bevel" stroke-miterlimit="10" stroke-width="3">3</text><text fill="rgb(0,0,0)" stroke="none" font-family="geogebra-sans-serif, sans-serif" font-size="12px" font-style="normal" font-weight="normal" text-decoration="normal" x="731" y="494" text-anchor="start" dominant-baseline="alphabetic" fill-opacity="1">3</text><text fill="rgb(0,0,0)" stroke="none" font-family="geogebra-sans-serif, sans-serif" font-size="12px" font-style="normal" font-weight="normal" text-decoration="normal" x="781" y="494" text-anchor="start" dominant-baseline="alphabetic" fill-opacity="1">3.5</text><text fill="none" stroke="rgb(255,255,255)" font-family="geogebra-sans-serif, sans-serif" font-size="12px" font-style="normal" font-weight="normal" text-decoration="normal" x="781" y="494" text-anchor="start" dominant-baseline="alphabetic" stroke-opacity="1" stroke-linejoin="bevel" stroke-miterlimit="10" stroke-width="3">3.5</text><text fill="rgb(0,0,0)" stroke="none" font-family="geogebra-sans-serif, sans-serif" font-size="12px" font-style="normal" font-weight="normal" text-decoration="normal" x="781" y="494" text-anchor="start" dominant-baseline="alphabetic" fill-opacity="1">3.5</text><text fill="rgb(0,0,0)" stroke="none" font-family="geogebra-sans-serif, sans-serif" font-size="12px" font-style="normal" font-weight="normal" text-decoration="normal" x="843" y="494" text-anchor="start" dominant-baseline="alphabetic" fill-opacity="1">4</text><text fill="none" stroke="rgb(255,255,255)" font-family="geogebra-sans-serif, sans-serif" font-size="12px" font-style="normal" font-weight="normal" text-decoration="normal" x="843" y="494" text-anchor="start" dominant-baseline="alphabetic" stroke-opacity="1" stroke-linejoin="bevel" stroke-miterlimit="10" stroke-width="3">4</text><text fill="rgb(0,0,0)" stroke="none" font-family="geogebra-sans-serif, sans-serif" font-size="12px" font-style="normal" font-weight="normal" text-decoration="normal" x="843" y="494" text-anchor="start" dominant-baseline="alphabetic" fill-opacity="1">4</text><text fill="rgb(0,0,0)" stroke="none" font-family="geogebra-sans-serif, sans-serif" font-size="12px" font-style="normal" font-weight="normal" text-decoration="normal" x="894" y="494" text-anchor="start" dominant-baseline="alphabetic" fill-opacity="1">4.5</text><text fill="none" stroke="rgb(255,255,255)" font-family="geogebra-sans-serif, sans-serif" font-size="12px" font-style="normal" font-weight="normal" text-decoration="normal" x="894" y="494" text-anchor="start" dominant-baseline="alphabetic" stroke-opacity="1" stroke-linejoin="bevel" stroke-miterlimit="10" stroke-width="3">4.5</text><text fill="rgb(0,0,0)" stroke="none" font-family="geogebra-sans-serif, sans-serif" font-size="12px" font-style="normal" font-weight="normal" text-decoration="normal" x="894" y="494" text-anchor="start" dominant-baseline="alphabetic" fill-opacity="1">4.5</text><text fill="rgb(0,0,0)" stroke="none" font-family="geogebra-sans-serif, sans-serif" font-size="12px" font-style="normal" font-weight="normal" text-decoration="normal" x="956" y="494" text-anchor="start" dominant-baseline="alphabetic" fill-opacity="1">5</text><text fill="none" stroke="rgb(255,255,255)" font-family="geogebra-sans-serif, sans-serif" font-size="12px" font-style="normal" font-weight="normal" text-decoration="normal" x="956" y="494" text-anchor="start" dominant-baseline="alphabetic" stroke-opacity="1" stroke-linejoin="bevel" stroke-miterlimit="10" stroke-width="3">5</text><text fill="rgb(0,0,0)" stroke="none" font-family="geogebra-sans-serif, sans-serif" font-size="12px" font-style="normal" font-weight="normal" text-decoration="normal" x="956" y="494" text-anchor="start" dominant-baseline="alphabetic" fill-opacity="1">5</text><text fill="rgb(0,0,0)" stroke="none" font-family="geogebra-sans-serif, sans-serif" font-size="12px" font-style="normal" font-weight="normal" text-decoration="normal" x="375" y="595" text-anchor="start" dominant-baseline="alphabetic" fill-opacity="1">–1</text><text fill="none" stroke="rgb(255,255,255)" font-family="geogebra-sans-serif, sans-serif" font-size="12px" font-style="normal" font-weight="normal" text-decoration="normal" x="375" y="595" text-anchor="start" dominant-baseline="alphabetic" stroke-opacity="1" stroke-linejoin="bevel" stroke-miterlimit="10" stroke-width="3">–1</text><text fill="rgb(0,0,0)" stroke="none" font-family="geogebra-sans-serif, sans-serif" font-size="12px" font-style="normal" font-weight="normal" text-decoration="normal" x="375" y="595" text-anchor="start" dominant-baseline="alphabetic" fill-opacity="1">–1</text><text fill="rgb(0,0,0)" stroke="none" font-family="geogebra-sans-serif, sans-serif" font-size="12px" font-style="normal" font-weight="normal" text-decoration="normal" x="365" y="539" text-anchor="start" dominant-baseline="alphabetic" fill-opacity="1">–0.5</text><text fill="none" stroke="rgb(255,255,255)" font-family="geogebra-sans-serif, sans-serif" font-size="12px" font-style="normal" font-weight="normal" text-decoration="normal" x="365" y="539" text-anchor="start" dominant-baseline="alphabetic" stroke-opacity="1" stroke-linejoin="bevel" stroke-miterlimit="10" stroke-width="3">–0.5</text><text fill="rgb(0,0,0)" stroke="none" font-family="geogebra-sans-serif, sans-serif" font-size="12px" font-style="normal" font-weight="normal" text-decoration="normal" x="365" y="539" text-anchor="start" dominant-baseline="alphabetic" fill-opacity="1">–0.5</text><text fill="rgb(0,0,0)" stroke="none" font-family="geogebra-sans-serif, sans-serif" font-size="12px" font-style="normal" font-weight="normal" text-decoration="normal" x="371" y="426" text-anchor="start" dominant-baseline="alphabetic" fill-opacity="1">0.5</text><text fill="none" stroke="rgb(255,255,255)" font-family="geogebra-sans-serif, sans-serif" font-size="12px" font-style="normal" font-weight="normal" text-decoration="normal" x="371" y="426" text-anchor="start" dominant-baseline="alphabetic" stroke-opacity="1" stroke-linejoin="bevel" stroke-miterlimit="10" stroke-width="3">0.5</text><text fill="rgb(0,0,0)" stroke="none" font-family="geogebra-sans-serif, sans-serif" font-size="12px" font-style="normal" font-weight="normal" text-decoration="normal" x="371" y="426" text-anchor="start" dominant-baseline="alphabetic" fill-opacity="1">0.5</text><text fill="rgb(0,0,0)" stroke="none" font-family="geogebra-sans-serif, sans-serif" font-size="12px" font-style="normal" font-weight="normal" text-decoration="normal" x="381" y="370" text-anchor="start" dominant-baseline="alphabetic" fill-opacity="1">1</text><text fill="none" stroke="rgb(255,255,255)" font-family="geogebra-sans-serif, sans-serif" font-size="12px" font-style="normal" font-weight="normal" text-decoration="normal" x="381" y="370" text-anchor="start" dominant-baseline="alphabetic" stroke-opacity="1" stroke-linejoin="bevel" stroke-miterlimit="10" stroke-width="3">1</text><text fill="rgb(0,0,0)" stroke="none" font-family="geogebra-sans-serif, sans-serif" font-size="12px" font-style="normal" font-weight="normal" text-decoration="normal" x="381" y="370" text-anchor="start" dominant-baseline="alphabetic" fill-opacity="1">1</text><text fill="rgb(0,0,0)" stroke="none" font-family="geogebra-sans-serif, sans-serif" font-size="12px" font-style="normal" font-weight="normal" text-decoration="normal" x="371" y="314" text-anchor="start" dominant-baseline="alphabetic" fill-opacity="1">1.5</text><text fill="none" stroke="rgb(255,255,255)" font-family="geogebra-sans-serif, sans-serif" font-size="12px" font-style="normal" font-weight="normal" text-decoration="normal" x="371" y="314" text-anchor="start" dominant-baseline="alphabetic" stroke-opacity="1" stroke-linejoin="bevel" stroke-miterlimit="10" stroke-width="3">1.5</text><text fill="rgb(0,0,0)" stroke="none" font-family="geogebra-sans-serif, sans-serif" font-size="12px" font-style="normal" font-weight="normal" text-decoration="normal" x="371" y="314" text-anchor="start" dominant-baseline="alphabetic" fill-opacity="1">1.5</text><text fill="rgb(0,0,0)" stroke="none" font-family="geogebra-sans-serif, sans-serif" font-size="12px" font-style="normal" font-weight="normal" text-decoration="normal" x="381" y="258" text-anchor="start" dominant-baseline="alphabetic" fill-opacity="1">2</text><text fill="none" stroke="rgb(255,255,255)" font-family="geogebra-sans-serif, sans-serif" font-size="12px" font-style="normal" font-weight="normal" text-decoration="normal" x="381" y="258" text-anchor="start" dominant-baseline="alphabetic" stroke-opacity="1" stroke-linejoin="bevel" stroke-miterlimit="10" stroke-width="3">2</text><text fill="rgb(0,0,0)" stroke="none" font-family="geogebra-sans-serif, sans-serif" font-size="12px" font-style="normal" font-weight="normal" text-decoration="normal" x="381" y="258" text-anchor="start" dominant-baseline="alphabetic" fill-opacity="1">2</text><text fill="rgb(0,0,0)" stroke="none" font-family="geogebra-sans-serif, sans-serif" font-size="12px" font-style="normal" font-weight="normal" text-decoration="normal" x="371" y="201" text-anchor="start" dominant-baseline="alphabetic" fill-opacity="1">2.5</text><text fill="none" stroke="rgb(255,255,255)" font-family="geogebra-sans-serif, sans-serif" font-size="12px" font-style="normal" font-weight="normal" text-decoration="normal" x="371" y="201" text-anchor="start" dominant-baseline="alphabetic" stroke-opacity="1" stroke-linejoin="bevel" stroke-miterlimit="10" stroke-width="3">2.5</text><text fill="rgb(0,0,0)" stroke="none" font-family="geogebra-sans-serif, sans-serif" font-size="12px" font-style="normal" font-weight="normal" text-decoration="normal" x="371" y="201" text-anchor="start" dominant-baseline="alphabetic" fill-opacity="1">2.5</text><text fill="rgb(0,0,0)" stroke="none" font-family="geogebra-sans-serif, sans-serif" font-size="12px" font-style="normal" font-weight="normal" text-decoration="normal" x="381" y="145" text-anchor="start" dominant-baseline="alphabetic" fill-opacity="1">3</text><text fill="none" stroke="rgb(255,255,255)" font-family="geogebra-sans-serif, sans-serif" font-size="12px" font-style="normal" font-weight="normal" text-decoration="normal" x="381" y="145" text-anchor="start" dominant-baseline="alphabetic" stroke-opacity="1" stroke-linejoin="bevel" stroke-miterlimit="10" stroke-width="3">3</text><text fill="rgb(0,0,0)" stroke="none" font-family="geogebra-sans-serif, sans-serif" font-size="12px" font-style="normal" font-weight="normal" text-decoration="normal" x="381" y="145" text-anchor="start" dominant-baseline="alphabetic" fill-opacity="1">3</text><text fill="rgb(0,0,0)" stroke="none" font-family="geogebra-sans-serif, sans-serif" font-size="12px" font-style="normal" font-weight="normal" text-decoration="normal" x="371" y="89" text-anchor="start" dominant-baseline="alphabetic" fill-opacity="1">3.5</text><text fill="none" stroke="rgb(255,255,255)" font-family="geogebra-sans-serif, sans-serif" font-size="12px" font-style="normal" font-weight="normal" text-decoration="normal" x="371" y="89" text-anchor="start" dominant-baseline="alphabetic" stroke-opacity="1" stroke-linejoin="bevel" stroke-miterlimit="10" stroke-width="3">3.5</text><text fill="rgb(0,0,0)" stroke="none" font-family="geogebra-sans-serif, sans-serif" font-size="12px" font-style="normal" font-weight="normal" text-decoration="normal" x="371" y="89" text-anchor="start" dominant-baseline="alphabetic" fill-opacity="1">3.5</text><text fill="rgb(0,0,0)" stroke="none" font-family="geogebra-sans-serif, sans-serif" font-size="12px" font-style="normal" font-weight="normal" text-decoration="normal" x="381" y="33" text-anchor="start" dominant-baseline="alphabetic" fill-opacity="1">4</text><text fill="none" stroke="rgb(255,255,255)" font-family="geogebra-sans-serif, sans-serif" font-size="12px" font-style="normal" font-weight="normal" text-decoration="normal" x="381" y="33" text-anchor="start" dominant-baseline="alphabetic" stroke-opacity="1" stroke-linejoin="bevel" stroke-miterlimit="10" stroke-width="3">4</text><text fill="rgb(0,0,0)" stroke="none" font-family="geogebra-sans-serif, sans-serif" font-size="12px" font-style="normal" font-weight="normal" text-decoration="normal" x="381" y="33" text-anchor="start" dominant-baseline="alphabetic" fill-opacity="1">4</text><text fill="rgb(0,0,0)" stroke="none" font-family="geogebra-sans-serif, sans-serif" font-size="12px" font-style="normal" font-weight="normal" text-decoration="normal" x="381" y="494" text-anchor="start" dominant-baseline="alphabetic" fill-opacity="1">0</text><text fill="none" stroke="rgb(255,255,255)" font-family="geogebra-sans-serif, sans-serif" font-size="12px" font-style="normal" font-weight="normal" text-decoration="normal" x="381" y="494" text-anchor="start" dominant-baseline="alphabetic" stroke-opacity="1" stroke-linejoin="bevel" stroke-miterlimit="10" stroke-width="3">0</text><text fill="rgb(0,0,0)" stroke="none" font-family="geogebra-sans-serif, sans-serif" font-size="12px" font-style="normal" font-weight="normal" text-decoration="normal" x="381" y="494" text-anchor="start" dominant-baseline="alphabetic" fill-opacity="1">0</text><path fill="none" stroke="rgb(255,0,0)" paint-order="fill stroke markers" d=" M 310.8750000000001 648 L 637.3749999999997 -5" stroke-opacity="0.6980392156862745" stroke-linecap="round" stroke-linejoin="round" stroke-miterlimit="10"/><path fill="none" stroke="rgb(0,0,255)" paint-order="fill stroke markers" d=" M -5 277.87499999999966 L 735.2499999999997 648" stroke-opacity="0.6980392156862745" stroke-linecap="round" stroke-linejoin="round" stroke-miterlimit="10"/><path fill="none" stroke="rgb(0,0,0)" paint-order="fill stroke markers" d=" M 395.75 478.24999999999994 L 829.2575774975292 369.8731056256175" stroke-opacity="0.6980392156862745" stroke-linecap="round" stroke-linejoin="round" stroke-miterlimit="10" stroke-width="2.5"/><path fill="rgb(0,0,0)" stroke="none" paint-order="stroke fill markers" fill-rule="evenodd" d=" M 845.7499999999998 365.74999999999983 L 830.2883539039336 373.99621125123514 L 828.2268010911247 365.74999999999983 Z" fill-opacity="0.6980392156862745"/><path fill="none" stroke="rgb(211,47,47)" paint-order="fill stroke markers" d=" M 395.75 478.24999999999994 L 523.1473688765008 223.45526224699827" stroke-opacity="0.6980392156862745" stroke-linecap="round" stroke-linejoin="round" stroke-miterlimit="10" stroke-width="2.5"/><path fill="rgb(211,47,47)" stroke="none" paint-order="stroke fill markers" fill-rule="evenodd" d=" M 530.75 208.24999999999972 L 526.9486844382504 225.35592002787308 L 519.3460533147511 221.55460446612346 Z" fill-opacity="0.6980392156862745"/><path fill="none" stroke="rgb(21,101,192)" paint-order="fill stroke markers" d=" M 530.75 208.24999999999972 L 830.5447377530012 358.14736887650054" stroke-opacity="0.6980392156862745" stroke-linecap="round" stroke-linejoin="round" stroke-miterlimit="10" stroke-width="2.5"/><path fill="rgb(21,101,192)" stroke="none" paint-order="stroke fill markers" fill-rule="evenodd" d=" M 845.7499999999998 365.74999999999983 L 828.6440799721264 361.94868443825015 L 832.445395533876 354.3460533147509 Z" fill-opacity="0.6980392156862745"/><path fill="none" stroke="rgb(21,101,192)" paint-order="fill stroke markers" d=" M 530.75 208.24999999999972 L 230.95526224699864 58.352631123498895" stroke-opacity="0.6980392156862745" stroke-linecap="round" stroke-linejoin="round" stroke-miterlimit="10" stroke-width="2.5"/><path fill="rgb(21,101,192)" stroke="none" paint-order="stroke fill markers" fill-rule="evenodd" d=" M 215.75000000000009 50.7499999999996 L 232.85592002787345 54.551315561749256 L 229.05460446612383 62.153946685248535 Z" fill-opacity="0.6980392156862745"/><path fill="none" stroke="rgb(0,0,0)" paint-order="fill stroke markers" d=" M 395.75 478.24999999999994 L 222.34696900098834 66.4178013773467" stroke-opacity="0.6980392156862745" stroke-linecap="round" stroke-linejoin="round" stroke-miterlimit="10" stroke-width="2.5"/><path fill="rgb(0,0,0)" stroke="none" paint-order="stroke fill markers" fill-rule="evenodd" d=" M 215.75000000000009 50.7499999999996 L 226.26391934532512 64.76855912709965 L 218.43001865665155 68.06704362759376 Z" fill-opacity="0.6980392156862745"/><path fill="rgb(97,97,97)" stroke="none" paint-order="stroke fill markers" d=" M 400.75 478.24999999999994 C 400.75 481.0114237491539 398.51142374915395 483.24999999999994 395.75 483.24999999999994 C 392.98857625084605 483.24999999999994 390.75 481.0114237491539 390.75 478.24999999999994 C 390.75 475.488576250846 392.98857625084605 473.24999999999994 395.75 473.24999999999994 C 398.51142374915395 473.24999999999994 400.75 475.488576250846 400.75 478.24999999999994 Z" fill-opacity="1"/><path fill="none" stroke="rgb(0,0,0)" paint-order="fill stroke markers" d=" M 400.75 478.24999999999994 C 400.75 481.0114237491539 398.51142374915395 483.24999999999994 395.75 483.24999999999994 C 392.98857625084605 483.24999999999994 390.75 481.0114237491539 390.75 478.24999999999994 C 390.75 475.488576250846 392.98857625084605 473.24999999999994 395.75 473.24999999999994 C 398.51142374915395 473.24999999999994 400.75 475.488576250846 400.75 478.24999999999994 Z" stroke-opacity="1" stroke-linecap="round" stroke-linejoin="round" stroke-miterlimit="10"/><text fill="rgb(97,97,97)" stroke="none" font-family="geogebra-sans-serif, sans-serif" font-size="16px" font-style="normal" font-weight="normal" text-decoration="normal" x="400" y="468" text-anchor="start" dominant-baseline="alphabetic" fill-opacity="1">A</text><text fill="none" stroke="rgb(255,255,255)" font-family="geogebra-sans-serif, sans-serif" font-size="16px" font-style="normal" font-weight="normal" text-decoration="normal" x="400" y="468" text-anchor="start" dominant-baseline="alphabetic" stroke-opacity="1" stroke-linejoin="bevel" stroke-miterlimit="10" stroke-width="3">A</text><text fill="rgb(97,97,97)" stroke="none" font-family="geogebra-sans-serif, sans-serif" font-size="16px" font-style="normal" font-weight="normal" text-decoration="normal" x="400" y="468" text-anchor="start" dominant-baseline="alphabetic" fill-opacity="1">A</text><g transform="scale(19,19)"><g transform="translate(33.05263157894737,23.180842105263157)"><path fill="rgb(0,0,0)" stroke="none" paint-order="stroke fill markers" d=" M 0.506 -0.376 L 0.34 -0.02 Q 0.329 0.004 0.303 0.004 Q 0.277 0.004 0.265 -0.021 L 0.09 -0.397 L 0.026000000000000002 -0.397 L 0.026000000000000002 -0.444 Q 0.036000000000000004 -0.444 0.08 -0.4425 Q 0.124 -0.441 0.14 -0.441 Q 0.214 -0.441 0.264 -0.444 L 0.264 -0.397 L 0.21 -0.397 L 0.337 -0.124 L 0.453 -0.374 Q 0.458 -0.384 0.458 -0.386 Q 0.458 -0.397 0.41000000000000003 -0.397 L 0.41000000000000003 -0.444 Q 0.47300000000000003 -0.441 0.501 -0.441 Q 0.542 -0.441 0.58 -0.444 L 0.58 -0.397 Q 0.536 -0.397 0.5235 -0.3925 Q 0.511 -0.388 0.506 -0.376 Z"/></g></g><g transform="scale(19,19)"><g transform="translate(25.157894736842106,17.917684210526314)"><path fill="rgb(0,0,0)" stroke="none" paint-order="stroke fill markers" d=" M 0.396 -0.38 L 0.396 -0.38 Q 0.368 -0.41600000000000004 0.31 -0.42 Q 0.245 -0.42 0.192 -0.354 Q 0.179 -0.338 0.169 -0.32 Q 0.129 -0.247 0.117 -0.148 Q 0.115 -0.132 0.115 -0.12 Q 0.115 -0.038 0.171 -0.017 Q 0.185 -0.011 0.20500000000000002 -0.011 Q 0.295 -0.011 0.367 -0.07100000000000001 Q 0.388 -0.088 0.405 -0.11 Q 0.41200000000000003 -0.12 0.418 -0.12 Q 0.427 -0.12 0.43 -0.107 Q 0.43 -0.096 0.396 -0.064 Q 0.313 0.011 0.203 0.011 Q 0.108 0.011 0.065 -0.065 Q 0.041 -0.106 0.041 -0.158 Q 0.041 -0.26 0.11900000000000001 -0.34700000000000003 Q 0.196 -0.433 0.291 -0.441 Q 0.3 -0.442 0.309 -0.442 Q 0.386 -0.442 0.41600000000000004 -0.395 Q 0.427 -0.377 0.427 -0.356 Q 0.427 -0.312 0.392 -0.296 Q 0.382 -0.292 0.371 -0.292 Q 0.341 -0.292 0.335 -0.318 Q 0.334 -0.322 0.334 -0.327 Q 0.334 -0.34900000000000003 0.352 -0.366 Q 0.366 -0.38 0.396 -0.38 Z"/></g><g transform="translate(25.590894736842106,18.067684210526313) scale(0.7,0.7)"><path fill="rgb(0,0,0)" stroke="none" paint-order="stroke fill markers" d=" M 0.294 -0.64 L 0.294 -0.079 Q 0.294 -0.049 0.306 -0.041 Q 0.323 -0.031 0.387 -0.031 L 0.419 -0.031 L 0.419 0 Q 0.384 -0.003 0.257 -0.003 Q 0.13 -0.003 0.095 0 L 0.095 -0.031 L 0.127 -0.031 Q 0.20400000000000001 -0.031 0.215 -0.049 L 0.216 -0.05 Q 0.22 -0.058 0.22 -0.079 L 0.22 -0.597 Q 0.168 -0.5710000000000001 0.089 -0.5710000000000001 L 0.089 -0.602 Q 0.209 -0.602 0.271 -0.666 Q 0.29 -0.666 0.293 -0.659 L 0.293 -0.659 L 0.293 -0.658 Q 0.294 -0.655 0.294 -0.64 Z"/></g><g transform="translate(25.940894736842107,17.917684210526314)"><path fill="rgb(0,0,0)" stroke="none" paint-order="stroke fill markers" d=" M 0.506 -0.376 L 0.34 -0.02 Q 0.329 0.004 0.303 0.004 Q 0.277 0.004 0.265 -0.021 L 0.09 -0.397 L 0.026000000000000002 -0.397 L 0.026000000000000002 -0.444 Q 0.036000000000000004 -0.444 0.08 -0.4425 Q 0.124 -0.441 0.14 -0.441 Q 0.214 -0.441 0.264 -0.444 L 0.264 -0.397 L 0.21 -0.397 L 0.337 -0.124 L 0.453 -0.374 Q 0.458 -0.384 0.458 -0.386 Q 0.458 -0.397 0.41000000000000003 -0.397 L 0.41000000000000003 -0.444 Q 0.47300000000000003 -0.441 0.501 -0.441 Q 0.542 -0.441 0.58 -0.444 L 0.58 -0.397 Q 0.536 -0.397 0.5235 -0.3925 Q 0.511 -0.388 0.506 -0.376 Z"/></g><g transform="translate(26.56389473684211,18.067684210526313) scale(0.7,0.7)"><path fill="rgb(0,0,0)" stroke="none" paint-order="stroke fill markers" d=" M 0.294 -0.64 L 0.294 -0.079 Q 0.294 -0.049 0.306 -0.041 Q 0.323 -0.031 0.387 -0.031 L 0.419 -0.031 L 0.419 0 Q 0.384 -0.003 0.257 -0.003 Q 0.13 -0.003 0.095 0 L 0.095 -0.031 L 0.127 -0.031 Q 0.20400000000000001 -0.031 0.215 -0.049 L 0.216 -0.05 Q 0.22 -0.058 0.22 -0.079 L 0.22 -0.597 Q 0.168 -0.5710000000000001 0.089 -0.5710000000000001 L 0.089 -0.602 Q 0.209 -0.602 0.271 -0.666 Q 0.29 -0.666 0.293 -0.659 L 0.293 -0.659 L 0.293 -0.658 Q 0.294 -0.655 0.294 -0.64 Z"/></g></g><g transform="scale(19,19)"><g transform="translate(36,14.286105263157896)"><path fill="rgb(0,0,0)" stroke="none" paint-order="stroke fill markers" d=" M 0.396 -0.38 L 0.396 -0.38 Q 0.368 -0.41600000000000004 0.31 -0.42 Q 0.245 -0.42 0.192 -0.354 Q 0.179 -0.338 0.169 -0.32 Q 0.129 -0.247 0.117 -0.148 Q 0.115 -0.132 0.115 -0.12 Q 0.115 -0.038 0.171 -0.017 Q 0.185 -0.011 0.20500000000000002 -0.011 Q 0.295 -0.011 0.367 -0.07100000000000001 Q 0.388 -0.088 0.405 -0.11 Q 0.41200000000000003 -0.12 0.418 -0.12 Q 0.427 -0.12 0.43 -0.107 Q 0.43 -0.096 0.396 -0.064 Q 0.313 0.011 0.203 0.011 Q 0.108 0.011 0.065 -0.065 Q 0.041 -0.106 0.041 -0.158 Q 0.041 -0.26 0.11900000000000001 -0.34700000000000003 Q 0.196 -0.433 0.291 -0.441 Q 0.3 -0.442 0.309 -0.442 Q 0.386 -0.442 0.41600000000000004 -0.395 Q 0.427 -0.377 0.427 -0.356 Q 0.427 -0.312 0.392 -0.296 Q 0.382 -0.292 0.371 -0.292 Q 0.341 -0.292 0.335 -0.318 Q 0.334 -0.322 0.334 -0.327 Q 0.334 -0.34900000000000003 0.352 -0.366 Q 0.366 -0.38 0.396 -0.38 Z"/></g><g transform="translate(36.433,14.436105263157897) scale(0.7,0.7)"><path fill="rgb(0,0,0)" stroke="none" paint-order="stroke fill markers" d=" M 0.449 -0.17400000000000002 L 0.449 -0.17400000000000002 L 0.421 0 L 0.05 0 Q 0.05 -0.025 0.056 -0.032 L 0.061 -0.037 L 0.253 -0.251 Q 0.358 -0.369 0.358 -0.47200000000000003 Q 0.358 -0.561 0.304 -0.607 L 0.303 -0.608 L 0.302 -0.608 Q 0.27 -0.635 0.224 -0.635 Q 0.152 -0.635 0.109 -0.5730000000000001 Q 0.097 -0.555 0.089 -0.533 Q 0.092 -0.534 0.10200000000000001 -0.534 Q 0.14200000000000002 -0.534 0.153 -0.498 L 0.153 -0.497 Q 0.155 -0.49 0.155 -0.482 Q 0.155 -0.442 0.117 -0.431 Q 0.109 -0.429 0.10300000000000001 -0.429 Q 0.066 -0.429 0.054 -0.46 Q 0.05 -0.47100000000000003 0.05 -0.485 Q 0.05 -0.562 0.109 -0.617 Q 0.162 -0.666 0.23700000000000002 -0.666 Q 0.34700000000000003 -0.666 0.40800000000000003 -0.592 Q 0.443 -0.549 0.448 -0.49 Q 0.449 -0.481 0.449 -0.47200000000000003 Q 0.449 -0.399 0.394 -0.333 Q 0.365 -0.299 0.304 -0.243 L 0.243 -0.189 L 0.233 -0.18 L 0.127 -0.077 L 0.307 -0.077 Q 0.395 -0.077 0.402 -0.085 Q 0.41200000000000003 -0.099 0.424 -0.17400000000000002 L 0.449 -0.17400000000000002 Z"/></g><g transform="translate(36.783,14.286105263157896)"><path fill="rgb(0,0,0)" stroke="none" paint-order="stroke fill markers" d=" M 0.506 -0.376 L 0.34 -0.02 Q 0.329 0.004 0.303 0.004 Q 0.277 0.004 0.265 -0.021 L 0.09 -0.397 L 0.026000000000000002 -0.397 L 0.026000000000000002 -0.444 Q 0.036000000000000004 -0.444 0.08 -0.4425 Q 0.124 -0.441 0.14 -0.441 Q 0.214 -0.441 0.264 -0.444 L 0.264 -0.397 L 0.21 -0.397 L 0.337 -0.124 L 0.453 -0.374 Q 0.458 -0.384 0.458 -0.386 Q 0.458 -0.397 0.41000000000000003 -0.397 L 0.41000000000000003 -0.444 Q 0.47300000000000003 -0.441 0.501 -0.441 Q 0.542 -0.441 0.58 -0.444 L 0.58 -0.397 Q 0.536 -0.397 0.5235 -0.3925 Q 0.511 -0.388 0.506 -0.376 Z"/></g><g transform="translate(37.406,14.436105263157897) scale(0.7,0.7)"><path fill="rgb(0,0,0)" stroke="none" paint-order="stroke fill markers" d=" M 0.449 -0.17400000000000002 L 0.449 -0.17400000000000002 L 0.421 0 L 0.05 0 Q 0.05 -0.025 0.056 -0.032 L 0.061 -0.037 L 0.253 -0.251 Q 0.358 -0.369 0.358 -0.47200000000000003 Q 0.358 -0.561 0.304 -0.607 L 0.303 -0.608 L 0.302 -0.608 Q 0.27 -0.635 0.224 -0.635 Q 0.152 -0.635 0.109 -0.5730000000000001 Q 0.097 -0.555 0.089 -0.533 Q 0.092 -0.534 0.10200000000000001 -0.534 Q 0.14200000000000002 -0.534 0.153 -0.498 L 0.153 -0.497 Q 0.155 -0.49 0.155 -0.482 Q 0.155 -0.442 0.117 -0.431 Q 0.109 -0.429 0.10300000000000001 -0.429 Q 0.066 -0.429 0.054 -0.46 Q 0.05 -0.47100000000000003 0.05 -0.485 Q 0.05 -0.562 0.109 -0.617 Q 0.162 -0.666 0.23700000000000002 -0.666 Q 0.34700000000000003 -0.666 0.40800000000000003 -0.592 Q 0.443 -0.549 0.448 -0.49 Q 0.449 -0.481 0.449 -0.47200000000000003 Q 0.449 -0.399 0.394 -0.333 Q 0.365 -0.299 0.304 -0.243 L 0.243 -0.189 L 0.233 -0.18 L 0.127 -0.077 L 0.307 -0.077 Q 0.395 -0.077 0.402 -0.085 Q 0.41200000000000003 -0.099 0.424 -0.17400000000000002 L 0.449 -0.17400000000000002 Z"/></g></g><g transform="scale(19,19)"><g transform="translate(21.63157894736842,7.530368421052632)"><path fill="rgb(0,0,0)" stroke="none" paint-order="stroke fill markers" d=" M 0.661 -0.23 L 0.116 -0.23 Q 0.084 -0.23 0.083 -0.25 Q 0.083 -0.27 0.116 -0.27 L 0.661 -0.27 Q 0.6930000000000001 -0.27 0.6940000000000001 -0.25 Q 0.6940000000000001 -0.23 0.661 -0.23 Z"/></g><g transform="translate(22.40957894736842,7.530368421052632)"><path fill="rgb(0,0,0)" stroke="none" paint-order="stroke fill markers" d=" M 0.396 -0.38 L 0.396 -0.38 Q 0.368 -0.41600000000000004 0.31 -0.42 Q 0.245 -0.42 0.192 -0.354 Q 0.179 -0.338 0.169 -0.32 Q 0.129 -0.247 0.117 -0.148 Q 0.115 -0.132 0.115 -0.12 Q 0.115 -0.038 0.171 -0.017 Q 0.185 -0.011 0.20500000000000002 -0.011 Q 0.295 -0.011 0.367 -0.07100000000000001 Q 0.388 -0.088 0.405 -0.11 Q 0.41200000000000003 -0.12 0.418 -0.12 Q 0.427 -0.12 0.43 -0.107 Q 0.43 -0.096 0.396 -0.064 Q 0.313 0.011 0.203 0.011 Q 0.108 0.011 0.065 -0.065 Q 0.041 -0.106 0.041 -0.158 Q 0.041 -0.26 0.11900000000000001 -0.34700000000000003 Q 0.196 -0.433 0.291 -0.441 Q 0.3 -0.442 0.309 -0.442 Q 0.386 -0.442 0.41600000000000004 -0.395 Q 0.427 -0.377 0.427 -0.356 Q 0.427 -0.312 0.392 -0.296 Q 0.382 -0.292 0.371 -0.292 Q 0.341 -0.292 0.335 -0.318 Q 0.334 -0.322 0.334 -0.327 Q 0.334 -0.34900000000000003 0.352 -0.366 Q 0.366 -0.38 0.396 -0.38 Z"/></g><g transform="translate(22.84257894736842,7.680368421052632) scale(0.7,0.7)"><path fill="rgb(0,0,0)" stroke="none" paint-order="stroke fill markers" d=" M 0.449 -0.17400000000000002 L 0.449 -0.17400000000000002 L 0.421 0 L 0.05 0 Q 0.05 -0.025 0.056 -0.032 L 0.061 -0.037 L 0.253 -0.251 Q 0.358 -0.369 0.358 -0.47200000000000003 Q 0.358 -0.561 0.304 -0.607 L 0.303 -0.608 L 0.302 -0.608 Q 0.27 -0.635 0.224 -0.635 Q 0.152 -0.635 0.109 -0.5730000000000001 Q 0.097 -0.555 0.089 -0.533 Q 0.092 -0.534 0.10200000000000001 -0.534 Q 0.14200000000000002 -0.534 0.153 -0.498 L 0.153 -0.497 Q 0.155 -0.49 0.155 -0.482 Q 0.155 -0.442 0.117 -0.431 Q 0.109 -0.429 0.10300000000000001 -0.429 Q 0.066 -0.429 0.054 -0.46 Q 0.05 -0.47100000000000003 0.05 -0.485 Q 0.05 -0.562 0.109 -0.617 Q 0.162 -0.666 0.23700000000000002 -0.666 Q 0.34700000000000003 -0.666 0.40800000000000003 -0.592 Q 0.443 -0.549 0.448 -0.49 Q 0.449 -0.481 0.449 -0.47200000000000003 Q 0.449 -0.399 0.394 -0.333 Q 0.365 -0.299 0.304 -0.243 L 0.243 -0.189 L 0.233 -0.18 L 0.127 -0.077 L 0.307 -0.077 Q 0.395 -0.077 0.402 -0.085 Q 0.41200000000000003 -0.099 0.424 -0.17400000000000002 L 0.449 -0.17400000000000002 Z"/></g><g transform="translate(23.19257894736842,7.530368421052632)"><path fill="rgb(0,0,0)" stroke="none" paint-order="stroke fill markers" d=" M 0.506 -0.376 L 0.34 -0.02 Q 0.329 0.004 0.303 0.004 Q 0.277 0.004 0.265 -0.021 L 0.09 -0.397 L 0.026000000000000002 -0.397 L 0.026000000000000002 -0.444 Q 0.036000000000000004 -0.444 0.08 -0.4425 Q 0.124 -0.441 0.14 -0.441 Q 0.214 -0.441 0.264 -0.444 L 0.264 -0.397 L 0.21 -0.397 L 0.337 -0.124 L 0.453 -0.374 Q 0.458 -0.384 0.458 -0.386 Q 0.458 -0.397 0.41000000000000003 -0.397 L 0.41000000000000003 -0.444 Q 0.47300000000000003 -0.441 0.501 -0.441 Q 0.542 -0.441 0.58 -0.444 L 0.58 -0.397 Q 0.536 -0.397 0.5235 -0.3925 Q 0.511 -0.388 0.506 -0.376 Z"/></g><g transform="translate(23.815578947368422,7.680368421052632) scale(0.7,0.7)"><path fill="rgb(0,0,0)" stroke="none" paint-order="stroke fill markers" d=" M 0.449 -0.17400000000000002 L 0.449 -0.17400000000000002 L 0.421 0 L 0.05 0 Q 0.05 -0.025 0.056 -0.032 L 0.061 -0.037 L 0.253 -0.251 Q 0.358 -0.369 0.358 -0.47200000000000003 Q 0.358 -0.561 0.304 -0.607 L 0.303 -0.608 L 0.302 -0.608 Q 0.27 -0.635 0.224 -0.635 Q 0.152 -0.635 0.109 -0.5730000000000001 Q 0.097 -0.555 0.089 -0.533 Q 0.092 -0.534 0.10200000000000001 -0.534 Q 0.14200000000000002 -0.534 0.153 -0.498 L 0.153 -0.497 Q 0.155 -0.49 0.155 -0.482 Q 0.155 -0.442 0.117 -0.431 Q 0.109 -0.429 0.10300000000000001 -0.429 Q 0.066 -0.429 0.054 -0.46 Q 0.05 -0.47100000000000003 0.05 -0.485 Q 0.05 -0.562 0.109 -0.617 Q 0.162 -0.666 0.23700000000000002 -0.666 Q 0.34700000000000003 -0.666 0.40800000000000003 -0.592 Q 0.443 -0.549 0.448 -0.49 Q 0.449 -0.481 0.449 -0.47200000000000003 Q 0.449 -0.399 0.394 -0.333 Q 0.365 -0.299 0.304 -0.243 L 0.243 -0.189 L 0.233 -0.18 L 0.127 -0.077 L 0.307 -0.077 Q 0.395 -0.077 0.402 -0.085 Q 0.41200000000000003 -0.099 0.424 -0.17400000000000002 L 0.449 -0.17400000000000002 Z"/></g></g><g transform="scale(19,19)"><g transform="translate(13,14.381578947368421)"><path fill="rgb(0,0,0)" stroke="none" paint-order="stroke fill markers" d=" M 0.427 -0.607 L 0.294 -0.076 Q 0.29 -0.061 0.29 -0.055 Q 0.29 -0.04 0.306 -0.036000000000000004 L 0.307 -0.036000000000000004 Q 0.314 -0.034 0.327 -0.033 Q 0.353 -0.031 0.391 -0.031 Q 0.422 -0.031 0.424 -0.025 Q 0.425 -0.023 0.425 -0.02 Q 0.421 -0.001 0.403 0 L 0.317 -0.002 L 0.316 -0.002 L 0.23500000000000001 -0.003 L 0.233 -0.003 L 0.15 -0.002 L 0.148 -0.002 L 0.067 0 L 0.066 0 Q 0.049 0 0.049 -0.012 Q 0.049 -0.027 0.06 -0.03 Q 0.067 -0.031 0.091 -0.031 Q 0.18 -0.031 0.197 -0.048 Q 0.203 -0.054 0.20700000000000002 -0.066 Q 0.20700000000000002 -0.068 0.20800000000000002 -0.07100000000000001 L 0.20800000000000002 -0.073 L 0.209 -0.073 L 0.209 -0.074 Q 0.209 -0.075 0.21 -0.079 L 0.34400000000000003 -0.613 Q 0.34800000000000003 -0.625 0.34800000000000003 -0.634 Q 0.34800000000000003 -0.643 0.339 -0.645 Q 0.333 -0.646 0.32 -0.646 L 0.281 -0.646 Q 0.178 -0.646 0.14 -0.623 Q 0.11900000000000001 -0.611 0.10300000000000001 -0.586 L 0.10200000000000001 -0.585 L 0.10200000000000001 -0.584 L 0.101 -0.584 Q 0.08 -0.551 0.053 -0.47300000000000003 Q 0.046 -0.454 0.041 -0.453 Q 0.039 -0.452 0.036000000000000004 -0.452 Q 0.024 -0.452 0.024 -0.463 Q 0.024 -0.46900000000000003 0.03 -0.481 L 0.09 -0.657 Q 0.096 -0.674 0.10400000000000001 -0.676 Q 0.109 -0.677 0.122 -0.677 L 0.677 -0.677 Q 0.7020000000000001 -0.677 0.704 -0.666 Q 0.704 -0.657 0.7020000000000001 -0.649 L 0.675 -0.47500000000000003 Q 0.672 -0.454 0.66 -0.452 Q 0.648 -0.452 0.648 -0.465 Q 0.648 -0.47200000000000003 0.651 -0.484 Q 0.659 -0.536 0.659 -0.5640000000000001 Q 0.659 -0.622 0.618 -0.637 Q 0.592 -0.646 0.513 -0.646 Q 0.459 -0.646 0.45 -0.644 Q 0.437 -0.641 0.431 -0.622 L 0.431 -0.621 Q 0.429 -0.616 0.427 -0.607 Z"/></g><g transform="translate(13.723,14.381578947368421)"><path fill="rgb(0,0,0)" stroke="none" paint-order="stroke fill markers" d=" M 0.331 0.24 L 0.331 0.24 Q 0.331 0.25 0.321 0.25 Q 0.309 0.25 0.268 0.209 Q 0.20600000000000002 0.147 0.165 0.062 Q 0.099 -0.074 0.099 -0.25 Q 0.099 -0.419 0.162 -0.555 Q 0.214 -0.666 0.294 -0.733 Q 0.315 -0.75 0.321 -0.75 Q 0.331 -0.75 0.331 -0.74 Q 0.331 -0.735 0.318 -0.723 Q 0.157 -0.559 0.157 -0.25 Q 0.157 0.058 0.314 0.218 Q 0.331 0.23500000000000001 0.331 0.24 Z"/></g><g transform="translate(14.112,14.381578947368421)"><path fill="rgb(0,0,0)" stroke="none" paint-order="stroke fill markers" d=" M 0.506 -0.376 L 0.34 -0.02 Q 0.329 0.004 0.303 0.004 Q 0.277 0.004 0.265 -0.021 L 0.09 -0.397 L 0.026000000000000002 -0.397 L 0.026000000000000002 -0.444 Q 0.036000000000000004 -0.444 0.08 -0.4425 Q 0.124 -0.441 0.14 -0.441 Q 0.214 -0.441 0.264 -0.444 L 0.264 -0.397 L 0.21 -0.397 L 0.337 -0.124 L 0.453 -0.374 Q 0.458 -0.384 0.458 -0.386 Q 0.458 -0.397 0.41000000000000003 -0.397 L 0.41000000000000003 -0.444 Q 0.47300000000000003 -0.441 0.501 -0.441 Q 0.542 -0.441 0.58 -0.444 L 0.58 -0.397 Q 0.536 -0.397 0.5235 -0.3925 Q 0.511 -0.388 0.506 -0.376 Z"/></g><g transform="translate(14.735,14.381578947368421)"><path fill="rgb(0,0,0)" stroke="none" paint-order="stroke fill markers" d=" M 0.289 -0.25 L 0.289 -0.25 Q 0.289 -0.081 0.226 0.055 Q 0.17400000000000002 0.166 0.094 0.233 Q 0.073 0.25 0.067 0.25 Q 0.057 0.25 0.057 0.24 Q 0.057 0.23500000000000001 0.07 0.223 Q 0.231 0.059000000000000004 0.231 -0.25 Q 0.231 -0.555 0.081 -0.712 L 0.076 -0.717 Q 0.057 -0.735 0.057 -0.74 Q 0.057 -0.75 0.067 -0.75 Q 0.079 -0.75 0.12 -0.709 Q 0.182 -0.647 0.223 -0.562 Q 0.289 -0.426 0.289 -0.25 Z"/></g></g><g transform="scale(19,19)"><g transform="translate(29.63157894736842,3.7466315789473685)"><path fill="rgb(0,0,0)" stroke="none" paint-order="stroke fill markers" d=" M 0.016 -0.099 L 0.016 -0.099 L 0.093 -0.17200000000000001 Q 0.093 -0.338 0.17200000000000001 -0.517 Q 0.223 -0.634 0.28300000000000003 -0.682 Q 0.312 -0.705 0.339 -0.705 Q 0.398 -0.705 0.398 -0.627 Q 0.398 -0.47300000000000003 0.226 -0.277 Q 0.201 -0.248 0.17500000000000002 -0.222 Q 0.159 -0.20600000000000002 0.153 -0.197 Q 0.148 -0.189 0.148 -0.14 Q 0.148 -0.01 0.209 -0.01 Q 0.26 -0.01 0.339 -0.088 Q 0.34900000000000003 -0.097 0.352 -0.097 Q 0.362 -0.097 0.364 -0.085 Q 0.364 -0.073 0.31 -0.031 L 0.31 -0.031 Q 0.306 -0.028 0.303 -0.026000000000000002 Q 0.25 0.012 0.20700000000000002 0.012 Q 0.114 0.012 0.095 -0.14100000000000001 Q 0.075 -0.121 0.059000000000000004 -0.107 Q 0.028 -0.076 0.023 -0.076 Q 0.015 -0.076 0.011 -0.089 Q 0.011 -0.092 0.016 -0.099 M 0.158 -0.23900000000000002 Q 0.374 -0.464 0.374 -0.631 Q 0.374 -0.683 0.34 -0.683 Q 0.31 -0.683 0.279 -0.626 L 0.278 -0.625 L 0.26 -0.589 Q 0.20400000000000001 -0.47400000000000003 0.159 -0.244 L 0.159 -0.243 Q 0.158 -0.24 0.158 -0.23900000000000002 Z"/></g></g><g transform="scale(19,19)"><g transform="translate(36.421052631578945,31.751629663157892)"><path fill="rgb(0,0,0)" stroke="none" paint-order="stroke fill markers" d=" M 0.016 -0.099 L 0.016 -0.099 L 0.093 -0.17200000000000001 Q 0.093 -0.338 0.17200000000000001 -0.517 Q 0.223 -0.634 0.28300000000000003 -0.682 Q 0.312 -0.705 0.339 -0.705 Q 0.398 -0.705 0.398 -0.627 Q 0.398 -0.47300000000000003 0.226 -0.277 Q 0.201 -0.248 0.17500000000000002 -0.222 Q 0.159 -0.20600000000000002 0.153 -0.197 Q 0.148 -0.189 0.148 -0.14 Q 0.148 -0.01 0.209 -0.01 Q 0.26 -0.01 0.339 -0.088 Q 0.34900000000000003 -0.097 0.352 -0.097 Q 0.362 -0.097 0.364 -0.085 Q 0.364 -0.073 0.31 -0.031 L 0.31 -0.031 Q 0.306 -0.028 0.303 -0.026000000000000002 Q 0.25 0.012 0.20700000000000002 0.012 Q 0.114 0.012 0.095 -0.14100000000000001 Q 0.075 -0.121 0.059000000000000004 -0.107 Q 0.028 -0.076 0.023 -0.076 Q 0.015 -0.076 0.011 -0.089 Q 0.011 -0.092 0.016 -0.099 M 0.158 -0.23900000000000002 Q 0.374 -0.464 0.374 -0.631 Q 0.374 -0.683 0.34 -0.683 Q 0.31 -0.683 0.279 -0.626 L 0.278 -0.625 L 0.26 -0.589 Q 0.20400000000000001 -0.47400000000000003 0.159 -0.244 L 0.159 -0.243 Q 0.158 -0.24 0.158 -0.23900000000000002 Z"/></g><g transform="translate(36.83805263157895,31.32790526315789) scale(0.7,0.7)"><path fill="rgb(0,0,0)" stroke="none" paint-order="stroke fill markers" d=" M 0.40900000000000003 -0.633 L 0.40900000000000003 -0.04 L 0.6890000000000001 -0.04 Q 0.721 -0.04 0.722 -0.02 Q 0.722 0 0.6890000000000001 0 L 0.09 0 Q 0.057 0 0.056 -0.02 Q 0.056 -0.04 0.09 -0.04 L 0.369 -0.04 L 0.369 -0.632 Q 0.369 -0.665 0.389 -0.666 Q 0.40900000000000003 -0.666 0.40900000000000003 -0.633 Z"/></g></g></g></g></svg>